<svg width="50" height="35" viewBox="0 0 50 35" fill="none" xmlns="http://www.w3.org/2000/svg">
<rect x="50" y="35" width="50" height="35" rx="10" transform="rotate(-180 50 35)" fill="url(#paint0_linear_131_68)"/>
<path d="M40.7071 17.7071C41.0976 17.3166 41.0976 16.6834 40.7071 16.2929L34.3431 9.92893C33.9526 9.53841 33.3195 9.53841 32.9289 9.92893C32.5384 10.3195 32.5384 10.9526 32.9289 11.3431L38.5858 17L32.9289 22.6569C32.5384 23.0474 32.5384 23.6805 32.9289 24.0711C33.3195 24.4616 33.9526 24.4616 34.3431 24.0711L40.7071 17.7071ZM40 16L10 16V18L40 18V16Z" fill="white"/>
<defs>
<linearGradient id="paint0_linear_131_68" x1="50" y1="52.5" x2="100" y2="52.5" gradientUnits="userSpaceOnUse">
<stop stop-color="#59A28B"/>
<stop offset="0.945" stop-color="#22646A"/>
</linearGradient>
</defs>
</svg>
