<svg width="257" height="46" viewBox="0 0 257 46" fill="none" xmlns="http://www.w3.org/2000/svg">
<path fill-rule="evenodd" clip-rule="evenodd" d="M107.409 10.5372C105.758 8.88477 103.796 7.57535 101.636 6.6843C99.4762 5.79326 97.1616 5.33819 94.8253 5.3453C85.0205 5.3453 77.0389 13.2871 77.0349 23.0504C77.0305 26.1592 77.85 29.2137 79.4099 31.9029L76.8857 41.0745L86.3165 38.6125C88.927 40.0267 91.8492 40.7668 94.8181 40.7658H94.8253C104.629 40.7658 112.61 32.8233 112.615 23.0607C112.621 20.7324 112.164 18.4261 111.27 16.2761C110.376 14.1261 109.064 12.1753 107.409 10.5372ZM94.8253 37.7775H94.8189C92.1722 37.7783 89.5737 37.07 87.2935 35.7263L86.7535 35.4072L81.1573 36.8683L82.6511 31.438L82.2993 30.8797C80.8194 28.5367 80.0354 25.8216 80.0384 23.0504C80.0384 14.9371 86.6746 8.33602 94.8309 8.33602C98.7435 8.32903 102.499 9.87647 105.271 12.638C108.042 15.3995 109.604 19.1489 109.611 23.0615C109.608 31.1756 102.975 37.7775 94.8253 37.7775ZM102.935 26.7565C102.491 26.5348 100.303 25.4645 99.8984 25.3169C99.4932 25.1694 99.1941 25.0952 98.8983 25.5387C98.6024 25.9821 97.7498 26.9742 97.4906 27.2733C97.2314 27.5723 96.9722 27.605 96.528 27.3833C96.0838 27.1616 94.6506 26.6951 92.9527 25.1877C91.6312 24.0146 90.7396 22.5663 90.4804 22.1236C90.2212 21.681 90.4525 21.441 90.675 21.2208C90.8751 21.0223 91.1192 20.7041 91.3417 20.4457C91.5642 20.1873 91.6384 20.0022 91.7859 19.7071C91.9335 19.4121 91.8601 19.1537 91.7492 18.9327C91.6384 18.7118 90.7491 16.5338 90.3791 15.6477C90.0178 14.7848 89.6517 14.9021 89.379 14.8885C89.1198 14.8757 88.8207 14.8725 88.5264 14.8725C88.3015 14.8784 88.0801 14.9306 87.8762 15.0258C87.6723 15.121 87.4902 15.2573 87.3413 15.426C86.9338 15.8694 85.7853 16.9413 85.7853 19.117C85.7853 21.2926 87.3804 23.3981 87.6005 23.6932C87.8206 23.9883 90.7348 28.4568 95.1937 30.3733C96.0217 30.7278 96.8677 31.0388 97.7283 31.3048C98.793 31.6413 99.762 31.5943 100.528 31.4802C101.382 31.3534 103.159 30.4099 103.529 29.3764C103.898 28.3428 103.899 27.4575 103.788 27.2733C103.677 27.089 103.38 26.9774 102.935 26.7565Z" fill="white"/>
<path fill-rule="evenodd" clip-rule="evenodd" d="M43.9069 12.1895C44.2233 11.187 43.9069 10.4583 42.5073 10.4583H37.8533C36.6794 10.4583 36.1373 11.0964 35.8209 11.7789C35.8209 11.7789 33.4268 17.6086 30.0836 21.3881C28.9995 22.4812 28.5027 22.8455 27.9153 22.8455C27.5989 22.8455 27.1919 22.4812 27.1919 21.4796V12.1424C27.1919 10.9586 26.8311 10.4121 25.8367 10.4121H18.5176C17.7942 10.4121 17.3428 10.9586 17.3428 11.5052C17.3428 12.6436 19.0143 12.9173 19.1947 16.1049V23.0312C19.1947 24.534 18.9281 24.8086 18.3363 24.8086C16.7553 24.8086 12.9154 18.9336 10.612 12.2392C10.1641 10.9133 9.70906 10.4121 8.53424 10.4121H3.83583C2.48061 10.4121 2.25488 11.0493 2.25488 11.7327C2.25488 12.9626 3.83583 19.1558 9.61842 27.3529C13.4584 32.9515 18.9246 35.9605 23.8487 35.9605C26.8311 35.9605 27.1919 35.2771 27.1919 34.1388V29.9033C27.1919 28.5375 27.4629 28.31 28.412 28.31C29.0892 28.31 30.3094 28.6734 33.0651 31.3608C36.227 34.5484 36.7691 36.0059 38.5314 36.0059H43.1844C44.5397 36.0059 45.1724 35.3225 44.8107 34.0019C44.4046 32.6813 42.8681 30.7689 40.8801 28.4921C39.7959 27.2178 38.1697 25.8057 37.6729 25.1223C36.9957 24.2114 37.1761 23.8471 37.6729 23.0277C37.6276 23.0277 43.3204 14.9212 43.9069 12.1859" fill="white"/>
<path d="M171.822 8.00626C173.851 8.01181 175.795 8.75307 177.229 10.0681C178.664 11.3832 179.473 13.1652 179.479 15.025V29.0609C179.473 30.9207 178.664 32.7027 177.229 34.0178C175.795 35.3329 173.851 36.0741 171.822 36.0797H156.51C154.481 36.0741 152.537 35.3329 151.103 34.0178C149.668 32.7027 148.859 30.9207 148.853 29.0609V15.025C148.859 13.1652 149.668 11.3832 151.103 10.0681C152.537 8.75307 154.481 8.01181 156.51 8.00626H171.822ZM171.822 5.19922H156.51C150.614 5.19922 145.791 9.6207 145.791 15.025V29.0609C145.791 34.4652 150.614 38.8867 156.51 38.8867H171.822C177.718 38.8867 182.541 34.4652 182.541 29.0609V15.025C182.541 9.6207 177.718 5.19922 171.822 5.19922Z" fill="white"/>
<path d="M174.119 15.0249C173.665 15.0249 173.221 14.9014 172.843 14.6701C172.465 14.4387 172.171 14.1099 171.997 13.7252C171.823 13.3404 171.778 12.9171 171.866 12.5087C171.955 12.1003 172.174 11.7251 172.495 11.4306C172.816 11.1362 173.225 10.9357 173.671 10.8544C174.116 10.7732 174.578 10.8149 174.998 10.9742C175.418 11.1336 175.776 11.4035 176.029 11.7497C176.281 12.0959 176.416 12.503 176.416 12.9194C176.416 13.1961 176.357 13.4701 176.242 13.7259C176.127 13.9816 175.958 14.2139 175.744 14.4096C175.531 14.6052 175.278 14.7602 174.999 14.8658C174.72 14.9714 174.421 15.0255 174.119 15.0249ZM164.166 16.428C165.377 16.428 166.562 16.7574 167.569 17.3743C168.576 17.9913 169.361 18.8682 169.825 19.8942C170.289 20.9202 170.41 22.0491 170.174 23.1383C169.937 24.2275 169.354 25.2279 168.497 26.0132C167.641 26.7984 166.549 27.3332 165.361 27.5498C164.173 27.7665 162.941 27.6553 161.822 27.2303C160.703 26.8053 159.746 26.0857 159.073 25.1623C158.4 24.239 158.041 23.1534 158.041 22.0429C158.042 20.5542 158.688 19.127 159.837 18.0744C160.985 17.0217 162.542 16.4296 164.166 16.428ZM164.166 13.621C162.349 13.621 160.573 14.1149 159.062 15.0403C157.551 15.9658 156.373 17.2811 155.678 18.82C154.982 20.3589 154.801 22.0522 155.155 23.6859C155.51 25.3196 156.385 26.8202 157.669 27.998C158.954 29.1759 160.591 29.978 162.374 30.3029C164.156 30.6279 166.003 30.4611 167.682 29.8237C169.361 29.1862 170.796 28.1068 171.805 26.7218C172.815 25.3369 173.354 23.7086 173.354 22.0429C173.354 19.8093 172.386 17.6671 170.663 16.0877C168.94 14.5083 166.603 13.621 164.166 13.621Z" fill="white"/>
<path d="M248.333 8.1836C247.88 8.20468 247.453 8.33641 247.073 8.48395H247.068C246.684 8.63676 244.855 9.40609 242.078 10.5706C239.301 11.7404 235.697 13.258 232.119 14.765C224.974 17.7738 217.95 20.7352 217.95 20.7352L218.034 20.7036C218.034 20.7036 217.549 20.8617 217.043 21.2095C216.785 21.3781 216.501 21.6099 216.253 21.9735C216.005 22.3371 215.805 22.8957 215.879 23.47C216 24.4449 216.632 25.0298 217.085 25.3512C217.544 25.6779 217.981 25.8307 217.981 25.8307H217.992L224.579 28.0491C224.874 28.9976 226.586 34.6253 226.997 35.9216C227.24 36.6962 227.477 37.1809 227.772 37.5498C227.914 37.7395 228.083 37.8976 228.283 38.024C228.362 38.0715 228.446 38.1083 228.531 38.14C228.557 38.1558 228.583 38.161 228.615 38.1663L228.546 38.1505C228.567 38.1558 228.583 38.1716 228.599 38.1768C228.652 38.1927 228.689 38.1979 228.757 38.2085C229.8 38.5246 230.638 37.8765 230.638 37.8765L230.686 37.8396L234.575 34.2986L241.093 39.2992L241.24 39.3625C242.6 39.9579 243.975 39.6259 244.702 39.041C245.435 38.4509 245.719 37.6973 245.719 37.6973L245.767 37.5761L250.804 11.772C250.946 11.1344 250.983 10.539 250.825 9.95937C250.667 9.37974 250.261 8.837 249.771 8.54718C249.276 8.2521 248.786 8.16252 248.333 8.1836ZM248.196 10.95C248.191 11.0343 248.206 11.0238 248.169 11.1871V11.2029L243.179 36.7383C243.158 36.7752 243.121 36.8542 243.021 36.9333C242.916 37.0176 242.832 37.0703 242.394 36.8964L234.422 30.7839L229.605 35.1733L230.617 28.7131C230.617 28.7131 243.106 17.073 243.643 16.5724C244.181 16.0718 244.001 15.9665 244.001 15.9665C244.038 15.3552 243.19 15.7873 243.19 15.7873L226.765 25.9624L226.76 25.9361L218.888 23.2856V23.2803C218.882 23.2803 218.872 23.2751 218.867 23.2751C218.872 23.2751 218.909 23.2593 218.909 23.2593L218.951 23.2382L218.993 23.2224C218.993 23.2224 226.022 20.261 233.168 17.2522C236.745 15.7451 240.35 14.2276 243.121 13.0578C245.893 11.8932 247.943 11.0396 248.059 10.9922C248.169 10.95 248.117 10.95 248.196 10.95Z" fill="white"/>
</svg>
