<svg width="36" height="35" viewBox="0 0 36 35" fill="none" xmlns="http://www.w3.org/2000/svg">
<path d="M27.9812 11.4844C27.7809 14.2646 25.7185 16.4062 23.4695 16.4062C21.2205 16.4062 19.1546 14.2652 18.9578 11.4844C18.7527 8.59209 20.7604 6.5625 23.4695 6.5625C26.1786 6.5625 28.1863 8.64473 27.9812 11.4844Z" stroke="white" stroke-width="3" stroke-linecap="round" stroke-linejoin="round"/>
<path d="M23.4685 20.7812C19.0135 20.7812 14.7294 22.994 13.6562 27.3034C13.514 27.8735 13.8715 28.4375 14.4573 28.4375H32.4803C33.0661 28.4375 33.4216 27.8735 33.2815 27.3034C32.2082 22.925 27.9241 20.7812 23.4685 20.7812Z" stroke="white" stroke-width="3" stroke-miterlimit="10"/>
<path d="M14.1715 12.7107C14.0115 14.9311 12.3449 16.6797 10.5484 16.6797C8.75196 16.6797 7.08262 14.9317 6.9254 12.7107C6.76202 10.4009 8.38419 8.75 10.5484 8.75C12.7127 8.75 14.3349 10.4433 14.1715 12.7107Z" stroke="white" stroke-width="3" stroke-linecap="round" stroke-linejoin="round"/>
<path d="M14.5827 20.918C13.3488 20.3526 11.9898 20.1353 10.5495 20.1353C6.99481 20.1353 3.57 21.9023 2.71209 25.3442C2.5993 25.7995 2.88504 26.25 3.35262 26.25H11.028" stroke="white" stroke-width="3" stroke-miterlimit="10" stroke-linecap="round"/>
</svg>
