<svg width="36" height="35" viewBox="0 0 36 35" fill="none" xmlns="http://www.w3.org/2000/svg">
<g clip-path="url(#clip0_135_69)">
<path d="M18.2858 18.0039L15.1125 9.75406C15.0649 9.63026 14.9809 9.5238 14.8715 9.4487C14.7622 9.37361 14.6326 9.33341 14.5 9.33341C14.3674 9.33341 14.2378 9.37361 14.1285 9.4487C14.0191 9.5238 13.9351 9.63026 13.8875 9.75406L10.7142 18.0039C10.6812 18.0896 10.6306 18.1674 10.5657 18.2324C10.5007 18.2973 10.4229 18.3479 10.3372 18.3808L2.0874 21.5542C1.96359 21.6018 1.85713 21.6858 1.78204 21.7951C1.70694 21.9045 1.66675 22.034 1.66675 22.1667C1.66675 22.2993 1.70694 22.4288 1.78204 22.5382C1.85713 22.6475 1.96359 22.7315 2.0874 22.7792L10.3372 25.9525C10.4229 25.9855 10.5007 26.036 10.5657 26.101C10.6306 26.1659 10.6812 26.2438 10.7142 26.3295L13.8875 34.5793C13.9351 34.7031 14.0191 34.8095 14.1285 34.8846C14.2378 34.9597 14.3674 34.9999 14.5 34.9999C14.6326 34.9999 14.7622 34.9597 14.8715 34.8846C14.9809 34.8095 15.0649 34.7031 15.1125 34.5793L18.2858 26.3295C18.3188 26.2438 18.3694 26.1659 18.4343 26.101C18.4993 26.036 18.5771 25.9855 18.6628 25.9525L26.9126 22.7792C27.0364 22.7315 27.1429 22.6475 27.218 22.5382C27.2931 22.4288 27.3333 22.2993 27.3333 22.1667C27.3333 22.034 27.2931 21.9045 27.218 21.7951C27.1429 21.6858 27.0364 21.6018 26.9126 21.5542L18.6628 18.3808C18.5771 18.3479 18.4993 18.2973 18.4343 18.2324C18.3694 18.1674 18.3188 18.0896 18.2858 18.0039ZM7.20833 3.79167L5.75 0L4.29167 3.79167L0.5 5.25L4.29167 6.70833L5.75 10.5L7.20833 6.70833L11 5.25L7.20833 3.79167ZM30.4447 7.38865L28.5 2.33333L26.5553 7.38865L21.5 9.33333L26.5553 11.278L28.5 16.3333L30.4447 11.278L35.5 9.33333L30.4447 7.38865Z" stroke="white" stroke-width="3" stroke-linecap="round" stroke-linejoin="round"/>
</g>
<defs>
<clipPath id="clip0_135_69">
<rect width="35" height="35" fill="white" transform="translate(0.5)"/>
</clipPath>
</defs>
</svg>
